<?xml version="1.0" encoding="UTF-8"?>
<svg id="Layer_1" data-name="Layer 1" xmlns="http://www.w3.org/2000/svg" viewBox="0 0 100 100">
  <defs>
    <style>
      .cls-1 {
        fill: #fff;
      }
    </style>
  </defs>
  <path class="cls-1" d="M46.4,42.1c.99,0,1.92.2,2.79.59s1.67.9,2.41,1.54l-.04.32c-.77-.64-1.56-1.14-2.38-1.51s-1.72-.56-2.7-.58c-.85,0-1.7.14-2.56.41-.86.27-1.64.6-2.34.98,1.07.71,1.86,1.55,2.37,2.51.51.96.76,1.94.76,2.95,0,.87-.19,1.72-.58,2.54s-.95,1.55-1.71,2.2c-.76.64-1.69,1.16-2.81,1.55-1.12.39-2.42.59-3.89.59-.71,0-1.4-.11-2.04-.32-.65-.21-1.27-.47-1.87-.77-.38.65-.75,1.29-1.11,1.93-.36.64-.71,1.29-1.05,1.95-.4.74-.81,1.49-1.22,2.24s-.85,1.5-1.3,2.25c-.78,1.3-1.63,2.45-2.55,3.45-.92,1-1.94,1.84-3.04,2.51-1.11.68-2.32,1.19-3.64,1.54-1.33.35-2.78.53-4.37.53-1.35,0-2.63-.19-3.84-.56-1.21-.37-2.28-.93-3.2-1.67-.92-.74-1.65-1.67-2.2-2.77-.54-1.11-.81-2.39-.81-3.85,0-1.2.17-2.38.52-3.52s.82-2.21,1.44-3.21,1.35-1.92,2.21-2.75,1.79-1.55,2.81-2.16c1.02-.6,2.11-1.07,3.27-1.4,1.16-.33,2.35-.5,3.57-.5.18,0,.37,0,.56.01.18,0,.38.02.58.03.87-1.15,1.9-2.19,3.06-3.12s2.43-1.71,3.77-2.35c1.35-.64,2.77-1.14,4.26-1.48s3-.52,4.54-.52,2.87.19,4.03.56c1.17.37,2.19.81,3.06,1.33.77-.44,1.61-.79,2.52-1.06.91-.27,1.83-.41,2.74-.41ZM29.79,52.09c.23.73.61,1.35,1.15,1.87.56-.81,1.12-1.6,1.7-2.36.58-.77,1.2-1.53,1.88-2.28.91-1.02,1.83-1.97,2.74-2.85.92-.88,1.86-1.64,2.82-2.27l.38-.24c-.74-.48-1.65-.89-2.71-1.25s-2.3-.54-3.71-.54-2.76.17-4.09.52c-1.34.34-2.62.83-3.84,1.45-1.23.62-2.39,1.37-3.48,2.25-1.09.87-2.1,1.84-3.01,2.9,1.13.19,2.2.46,3.23.82s2.08.83,3.17,1.4l-.08.18c-.6-.25-1.17-.47-1.73-.67-.56-.19-1.11-.36-1.67-.51-.56-.15-1.12-.27-1.68-.36-.57-.09-1.16-.16-1.78-.2-.35.46-.67.95-.97,1.45-.31.5-.58,1.03-.81,1.57-.24.54-.43,1.11-.57,1.69s-.21,1.18-.21,1.79c0,.7.11,1.37.34,2,.22.63.55,1.18.98,1.65.43.47.96.84,1.58,1.12.62.28,1.33.42,2.13.42.5,0,.99-.05,1.46-.15s.93-.28,1.38-.55l.1.16c-.48.37-.98.63-1.51.78-.53.15-1.14.23-1.85.23-.81,0-1.56-.14-2.24-.42s-1.27-.67-1.76-1.17c-.49-.5-.87-1.1-1.14-1.8s-.41-1.45-.41-2.28c0-1.15.21-2.26.63-3.33.42-1.07.96-2.13,1.64-3.19h-.1c-1.13,0-2.23.16-3.33.47s-2.13.75-3.12,1.31c-.99.56-1.89,1.24-2.72,2.04s-1.55,1.67-2.16,2.63c-.61.96-1.09,1.99-1.43,3.1-.34,1.11-.52,2.25-.52,3.44s.21,2.26.64,3.24c.42.98,1.01,1.82,1.77,2.53s1.66,1.26,2.7,1.66c1.05.4,2.2.6,3.46.6.97,0,1.9-.15,2.79-.44.9-.29,1.75-.68,2.56-1.17.81-.49,1.58-1.05,2.32-1.69.73-.64,1.41-1.3,2.04-1.99.57-.61,1.11-1.24,1.63-1.9.52-.66,1.02-1.33,1.49-2.02s.94-1.38,1.39-2.09.9-1.41,1.35-2.12c.34-.56.69-1.09,1.02-1.62.34-.52.69-1.06,1.06-1.62-.61-.57-1.11-1.21-1.49-1.93v.02c-.21-.34-.38-.68-.52-1.01-.13-.33-.2-.62-.2-.85,0-.16.04-.34.13-.55s.24-.31.46-.31c.13.01.24.09.33.22.09.13.14.35.14.65,0,.27.01.52.04.76s.09.51.19.8v-.02ZM35.71,55.76c1.15,0,2.19-.2,3.11-.61.92-.4,1.7-.93,2.34-1.58.64-.65,1.14-1.39,1.49-2.22.35-.83.52-1.67.52-2.53s-.18-1.67-.55-2.46c-.36-.79-.94-1.5-1.74-2.11l-.4.26c-.92.64-1.81,1.43-2.7,2.37-.89.95-1.77,1.99-2.64,3.13-.6.81-1.15,1.61-1.67,2.39s-1.01,1.58-1.47,2.37c.5.25,1.05.47,1.63.66.58.19,1.27.29,2.07.32Z"/>
  <path class="cls-1" d="M47.69,56.55l-1.21,1.21s-.3-1.35-1.69-1.35c-1.51,0-2.6,1.41-2.68,1.53v5.8c0,.7.7,1.13.89,1.13h-3.12c.18,0,.87-.44.87-1.13v-5.66c0-1.35-.87-1.35-.87-1.41s1.75-.77,1.97-.77c.18,0,.26.16.26.34v1.31c.1-.1,1.35-1.65,3.3-1.65,1.69,0,2.28.65,2.28.65Z"/>
  <path class="cls-1" d="M47.45,60.39c0-2.48,2.01-4.49,4.49-4.49s4.49,2.01,4.49,4.49-2.01,4.49-4.49,4.49-4.49-2.01-4.49-4.49ZM48.8,60.39c0,2.34,1.41,4.25,3.14,4.25s3.14-1.91,3.14-4.25-1.41-4.25-3.14-4.25-3.14,1.91-3.14,4.25Z"/>
  <path class="cls-1" d="M73.75,64.88c.2,0,.89-.44.89-1.13v-4.29c0-2.14-.58-3.3-2.17-3.3-1.71,0-2.86,1.33-2.86,1.33-.46.44-.97,1.23-1.35,1.85v.02c-1.43,2.42-2.72,5.52-5.92,5.52-2.88,0-4.81-1.93-4.81-4.49s2.06-4.49,4.55-4.49c2.03,0,3.73,1.35,4.29,3.2l-1.17.4-6.18,2.03c.44,1.75,1.93,2.98,3.65,2.98,2.84,0,4.09-3.18,5.58-5.6v-.81c0-1.35-.87-1.35-.87-1.41s1.75-.77,1.97-.77c.18,0,.26.18.26.36v.87s1.17-1.23,3-1.23c1.05,0,3.38.58,3.38,3.55v4.29c0,.7.7,1.13.87,1.13h-3.12ZM58.97,61.28l6.18-2.03c-.38-1.79-1.61-3.1-3.06-3.1-1.77,0-3.2,1.89-3.2,4.23,0,.32.02.6.08.89ZM69.62,63.74c0,.7.7,1.13.89,1.13h-3.12c.18,0,.87-.44.87-1.13v-3.71c.28-.5.83-1.45,1.35-2.03v5.74Z"/>
  <path class="cls-1" d="M77.65,60.39c0-2.6,2.06-4.49,4.55-4.49,1.81,0,3.34,1.05,4.07,2.58l-1.09.36c-.48-1.59-1.63-2.7-2.98-2.7-1.77,0-3.2,1.91-3.2,4.25s1.73,4.11,3.79,4.11c1.95,0,2.96-1.39,2.96-1.39l.18.18s-1.19,1.59-3.47,1.59c-2.86,0-4.81-1.87-4.81-4.49Z"/>
  <path class="cls-1" d="M87.39,60.39c0-2.6,2.06-4.49,4.55-4.49,2.03,0,3.75,1.35,4.29,3.2l-7.35,2.4c.44,1.77,1.93,3,3.65,3,2.08,0,3.28-1.53,3.28-1.53l.2.18s-1.41,1.73-3.81,1.73c-2.88,0-4.81-1.95-4.81-4.49ZM88.74,60.39c0,.3.02.6.08.87l6.2-2.03c-.38-1.79-1.61-3.1-3.08-3.1-1.77,0-3.2,1.91-3.2,4.25Z"/>
</svg>